<?xml version="1.0" encoding="UTF-8"?>
<svg id="Capa_2" data-name="Capa 2" xmlns="http://www.w3.org/2000/svg" viewBox="0 0 269.01 136.63">
  <defs>
    <style>
      .cls-1 {
        fill: #164ab3;
      }

      .cls-1, .cls-2 {
        stroke-width: 0px;
      }

      .cls-2 {
        fill: #fff;
      }
    </style>
  </defs>
  <g id="Capa_1-2" data-name="Capa 1">
    <g>
      <path class="cls-1" d="M0,65.51v-21.1h60.07v21.1H0ZM17.55,122.68V12.04h24.8v110.64h-24.8Z"/>
      <path class="cls-1" d="M66.69,122.68V44.41h24.8v78.27h-24.8ZM118.55,122.68v-44.61c0-3.97-1.29-7.22-3.86-9.74-2.58-2.52-5.8-3.78-9.66-3.78-2.58,0-4.89.56-6.92,1.69-2.04,1.13-3.65,2.71-4.83,4.75-1.18,2.04-1.77,4.4-1.77,7.09l-9.5-4.67c0-6.12,1.37-11.49,4.11-16.1,2.74-4.61,6.49-8.19,11.27-10.71,4.78-2.52,10.17-3.78,16.18-3.78,5.69,0,10.79,1.34,15.3,4.03,4.51,2.68,8.05,6.31,10.63,10.87,2.58,4.56,3.86,9.53,3.86,14.9v50.08h-24.8Z"/>
      <path class="cls-1" d="M146.6,65.51v-21.1h64.58v21.1h-64.58ZM163.99,122.68V37.81c0-6.44,1.39-12.21,4.19-17.31,2.79-5.1,6.82-9.15,12.08-12.16,5.26-3,11.38-4.51,18.36-4.51,5.37,0,10.06.91,14.09,2.74,4.03,1.83,7.54,4.24,10.55,7.25l-15.62,15.78c-.97-1.07-2.09-1.9-3.38-2.5-1.29-.59-2.85-.89-4.67-.89-3.44,0-6.09.97-7.97,2.9-1.88,1.93-2.82,4.56-2.82,7.89v85.67h-24.8Z"/>
      <path class="cls-2" d="M238.62,136.5c-4.88-.55-8.68-2.65-11.42-6.29s-3.84-7.78-3.32-12.41c.55-4.87,2.56-8.75,6.04-11.64,3.47-2.88,7.65-4.05,12.53-3.49s8.69,2.62,11.43,6.2c2.74,3.58,3.84,7.81,3.29,12.69-.52,4.64-2.52,8.42-6,11.36s-7.66,4.14-12.54,3.59ZM233.57,86.1L238.65,0l30.36,3.43-14.23,85.07-21.21-2.39Z"/>
    </g>
  </g>
</svg>